<svg id="Component_59_18" data-name="Component 59 – 18" xmlns="http://www.w3.org/2000/svg" width="70" height="50" viewBox="0 0 70 50">
  <defs>
    <style>
      .cls-1 {
        fill: #6e8ca0;
      }

      .cls-2, .cls-3 {
        fill: #fdfdfd;
      }

      .cls-3 {
        font-size: 12px;
        font-family: Europa-Bold;
        font-weight: 700;
      }

      .cls-4, .cls-5 {
        stroke: none;
      }

      .cls-5 {
        fill: #fdfdfd;
      }
    </style>
  </defs>
  <path id="Path_153" data-name="Path 153" class="cls-1" d="M35,0,70,50H0Z"/>
  <g id="Path_152" data-name="Path 152" class="cls-2" transform="translate(20 4.284)">
    <path class="cls-4" d="M 28.58008003234863 18.94010162353516 L 18.85663223266602 15.33391952514648 L 18.59785270690918 15.23795032501221 L 18.37873268127441 15.40577983856201 L 14.21317481994629 18.59629440307617 L 10.78445243835449 15.43511962890625 L 10.55221271514893 15.2209997177124 L 10.2591028213501 15.33876991271973 L 1.473093628883362 18.86921310424805 L 15.00000286102295 0.8333333134651184 L 28.58008003234863 18.94010162353516 Z"/>
    <path class="cls-5" d="M 15.00000286102295 1.666666030883789 L 2.946168899536133 17.73844528198242 L 10.65889358520508 14.63926982879639 L 14.24295711517334 17.94366836547852 L 18.51293182373047 14.67317962646484 L 27.16016960144043 17.88022232055664 L 15.00000286102295 1.666666030883789 M 15.00000286102295 0 L 30.00000381469727 20 L 18.68276214599609 15.80272006988525 L 14.18339252471924 19.24891090393066 L 10.44553375244141 15.80272006988525 L 1.9073486328125e-06 20 L 15.00000286102295 0 Z"/>
  </g>
  <text id="NH48" class="cls-3" transform="translate(16.5 33)"><tspan x="3.008" y="9">NH48</tspan></text>
</svg>
